<svg width="43" height="16" viewBox="0 0 43 16" fill="none" xmlns="http://www.w3.org/2000/svg">
<path d="M4.79688 7.53906H1.75781V6.3125H4.79688C5.38542 6.3125 5.86198 6.21875 6.22656 6.03125C6.59115 5.84375 6.85677 5.58333 7.02344 5.25C7.19531 4.91667 7.28125 4.53646 7.28125 4.10938C7.28125 3.71875 7.19531 3.35156 7.02344 3.00781C6.85677 2.66406 6.59115 2.38802 6.22656 2.17969C5.86198 1.96615 5.38542 1.85938 4.79688 1.85938H2.10938V12H0.601562V0.625H4.79688C5.65625 0.625 6.38281 0.773438 6.97656 1.07031C7.57031 1.36719 8.02083 1.77865 8.32812 2.30469C8.63542 2.82552 8.78906 3.42188 8.78906 4.09375C8.78906 4.82292 8.63542 5.44531 8.32812 5.96094C8.02083 6.47656 7.57031 6.86979 6.97656 7.14062C6.38281 7.40625 5.65625 7.53906 4.79688 7.53906ZM15.3672 10.5547V6.20312C15.3672 5.86979 15.2995 5.58073 15.1641 5.33594C15.0339 5.08594 14.8359 4.89323 14.5703 4.75781C14.3047 4.6224 13.9766 4.55469 13.5859 4.55469C13.2214 4.55469 12.901 4.61719 12.625 4.74219C12.3542 4.86719 12.1406 5.03125 11.9844 5.23438C11.8333 5.4375 11.7578 5.65625 11.7578 5.89062H10.3125C10.3125 5.58854 10.3906 5.28906 10.5469 4.99219C10.7031 4.69531 10.9271 4.42708 11.2188 4.1875C11.5156 3.94271 11.8698 3.75 12.2812 3.60938C12.6979 3.46354 13.1615 3.39062 13.6719 3.39062C14.2865 3.39062 14.8281 3.49479 15.2969 3.70312C15.7708 3.91146 16.1406 4.22656 16.4062 4.64844C16.6771 5.0651 16.8125 5.58854 16.8125 6.21875V10.1562C16.8125 10.4375 16.8359 10.737 16.8828 11.0547C16.9349 11.3724 17.0104 11.6458 17.1094 11.875V12H15.6016C15.5286 11.8333 15.4714 11.612 15.4297 11.3359C15.388 11.0547 15.3672 10.7943 15.3672 10.5547ZM15.6172 6.875L15.6328 7.89062H14.1719C13.7604 7.89062 13.3932 7.92448 13.0703 7.99219C12.7474 8.05469 12.4766 8.15104 12.2578 8.28125C12.0391 8.41146 11.8724 8.57552 11.7578 8.77344C11.6432 8.96615 11.5859 9.19271 11.5859 9.45312C11.5859 9.71875 11.6458 9.96094 11.7656 10.1797C11.8854 10.3984 12.0651 10.5729 12.3047 10.7031C12.5495 10.8281 12.849 10.8906 13.2031 10.8906C13.6458 10.8906 14.0365 10.7969 14.375 10.6094C14.7135 10.4219 14.9818 10.1927 15.1797 9.92188C15.3828 9.65104 15.4922 9.38802 15.5078 9.13281L16.125 9.82812C16.0885 10.0469 15.9896 10.2891 15.8281 10.5547C15.6667 10.8203 15.4505 11.0755 15.1797 11.3203C14.9141 11.5599 14.5964 11.7604 14.2266 11.9219C13.862 12.0781 13.4505 12.1562 12.9922 12.1562C12.4193 12.1562 11.9167 12.0443 11.4844 11.8203C11.0573 11.5964 10.724 11.2969 10.4844 10.9219C10.25 10.5417 10.1328 10.1172 10.1328 9.64844C10.1328 9.19531 10.2214 8.79688 10.3984 8.45312C10.5755 8.10417 10.8307 7.8151 11.1641 7.58594C11.4974 7.35156 11.8984 7.17448 12.3672 7.05469C12.8359 6.9349 13.3594 6.875 13.9375 6.875H15.6172ZM24.5625 3.54688H25.875V11.8203C25.875 12.5651 25.724 13.2005 25.4219 13.7266C25.1198 14.2526 24.6979 14.651 24.1562 14.9219C23.6198 15.1979 23 15.3359 22.2969 15.3359C22.0052 15.3359 21.6615 15.2891 21.2656 15.1953C20.875 15.1068 20.4896 14.9531 20.1094 14.7344C19.7344 14.5208 19.4193 14.2318 19.1641 13.8672L19.9219 13.0078C20.276 13.4349 20.6458 13.7318 21.0312 13.8984C21.4219 14.0651 21.8073 14.1484 22.1875 14.1484C22.6458 14.1484 23.0417 14.0625 23.375 13.8906C23.7083 13.7188 23.9661 13.4635 24.1484 13.125C24.3359 12.7917 24.4297 12.3802 24.4297 11.8906V5.40625L24.5625 3.54688ZM18.7422 7.86719V7.70312C18.7422 7.05729 18.8177 6.47135 18.9688 5.94531C19.125 5.41406 19.3464 4.95833 19.6328 4.57812C19.9245 4.19792 20.276 3.90625 20.6875 3.70312C21.099 3.49479 21.5625 3.39062 22.0781 3.39062C22.6094 3.39062 23.0729 3.48438 23.4688 3.67188C23.8698 3.85417 24.2083 4.1224 24.4844 4.47656C24.7656 4.82552 24.987 5.2474 25.1484 5.74219C25.3099 6.23698 25.4219 6.79688 25.4844 7.42188V8.14062C25.4271 8.76042 25.3151 9.31771 25.1484 9.8125C24.987 10.3073 24.7656 10.7292 24.4844 11.0781C24.2083 11.4271 23.8698 11.6953 23.4688 11.8828C23.0677 12.0651 22.599 12.1562 22.0625 12.1562C21.5573 12.1562 21.099 12.0495 20.6875 11.8359C20.2812 11.6224 19.9323 11.3229 19.6406 10.9375C19.349 10.5521 19.125 10.099 18.9688 9.57812C18.8177 9.05208 18.7422 8.48177 18.7422 7.86719ZM20.1875 7.70312V7.86719C20.1875 8.28906 20.2292 8.6849 20.3125 9.05469C20.401 9.42448 20.5339 9.75 20.7109 10.0312C20.8932 10.3125 21.125 10.5339 21.4062 10.6953C21.6875 10.8516 22.0234 10.9297 22.4141 10.9297C22.8932 10.9297 23.2891 10.8281 23.6016 10.625C23.9141 10.4219 24.1615 10.1536 24.3438 9.82031C24.5312 9.48698 24.6771 9.125 24.7812 8.73438V6.85156C24.724 6.5651 24.6354 6.28906 24.5156 6.02344C24.401 5.7526 24.25 5.51302 24.0625 5.30469C23.8802 5.09115 23.6536 4.92188 23.3828 4.79688C23.112 4.67188 22.7943 4.60938 22.4297 4.60938C22.0339 4.60938 21.6927 4.69271 21.4062 4.85938C21.125 5.02083 20.8932 5.24479 20.7109 5.53125C20.5339 5.8125 20.401 6.14062 20.3125 6.51562C20.2292 6.88542 20.1875 7.28125 20.1875 7.70312ZM31.5781 12.1562C30.9896 12.1562 30.4557 12.0573 29.9766 11.8594C29.5026 11.6562 29.0938 11.3724 28.75 11.0078C28.4115 10.6432 28.151 10.2109 27.9688 9.71094C27.7865 9.21094 27.6953 8.66406 27.6953 8.07031V7.74219C27.6953 7.05469 27.7969 6.44271 28 5.90625C28.2031 5.36458 28.4792 4.90625 28.8281 4.53125C29.1771 4.15625 29.5729 3.8724 30.0156 3.67969C30.4583 3.48698 30.9167 3.39062 31.3906 3.39062C31.9948 3.39062 32.5156 3.49479 32.9531 3.70312C33.3958 3.91146 33.7578 4.20312 34.0391 4.57812C34.3203 4.94792 34.5286 5.38542 34.6641 5.89062C34.7995 6.39062 34.8672 6.9375 34.8672 7.53125V8.17969H28.5547V7H33.4219V6.89062C33.401 6.51562 33.3229 6.15104 33.1875 5.79688C33.0573 5.44271 32.849 5.15104 32.5625 4.92188C32.276 4.69271 31.8854 4.57812 31.3906 4.57812C31.0625 4.57812 30.7604 4.64844 30.4844 4.78906C30.2083 4.92448 29.9714 5.1276 29.7734 5.39844C29.5755 5.66927 29.4219 6 29.3125 6.39062C29.2031 6.78125 29.1484 7.23177 29.1484 7.74219V8.07031C29.1484 8.47135 29.2031 8.84896 29.3125 9.20312C29.4271 9.55208 29.5911 9.85938 29.8047 10.125C30.0234 10.3906 30.2865 10.599 30.5938 10.75C30.9062 10.901 31.2604 10.9766 31.6562 10.9766C32.1667 10.9766 32.599 10.8724 32.9531 10.6641C33.3073 10.4557 33.6172 10.1771 33.8828 9.82812L34.7578 10.5234C34.5755 10.7995 34.3438 11.0625 34.0625 11.3125C33.7812 11.5625 33.4349 11.7656 33.0234 11.9219C32.6172 12.0781 32.1354 12.1562 31.5781 12.1562ZM41.4766 9.75781C41.4766 9.54948 41.4297 9.35677 41.3359 9.17969C41.2474 8.9974 41.0625 8.83333 40.7812 8.6875C40.5052 8.53646 40.0885 8.40625 39.5312 8.29688C39.0625 8.19792 38.638 8.08073 38.2578 7.94531C37.8828 7.8099 37.5625 7.64583 37.2969 7.45312C37.0365 7.26042 36.8359 7.03385 36.6953 6.77344C36.5547 6.51302 36.4844 6.20833 36.4844 5.85938C36.4844 5.52604 36.5573 5.21094 36.7031 4.91406C36.8542 4.61719 37.0651 4.35417 37.3359 4.125C37.612 3.89583 37.9427 3.71615 38.3281 3.58594C38.7135 3.45573 39.1432 3.39062 39.6172 3.39062C40.2943 3.39062 40.8724 3.51042 41.3516 3.75C41.8307 3.98958 42.1979 4.3099 42.4531 4.71094C42.7083 5.10677 42.8359 5.54688 42.8359 6.03125H41.3906C41.3906 5.79688 41.3203 5.57031 41.1797 5.35156C41.0443 5.1276 40.8438 4.94271 40.5781 4.79688C40.3177 4.65104 39.9974 4.57812 39.6172 4.57812C39.2161 4.57812 38.8906 4.64062 38.6406 4.76562C38.3958 4.88542 38.2161 5.03906 38.1016 5.22656C37.9922 5.41406 37.9375 5.61198 37.9375 5.82031C37.9375 5.97656 37.9635 6.11719 38.0156 6.24219C38.0729 6.36198 38.1719 6.47396 38.3125 6.57812C38.4531 6.67708 38.651 6.77083 38.9062 6.85938C39.1615 6.94792 39.487 7.03646 39.8828 7.125C40.5755 7.28125 41.1458 7.46875 41.5938 7.6875C42.0417 7.90625 42.375 8.17448 42.5938 8.49219C42.8125 8.8099 42.9219 9.19531 42.9219 9.64844C42.9219 10.0182 42.8438 10.3568 42.6875 10.6641C42.5365 10.9714 42.3151 11.237 42.0234 11.4609C41.737 11.6797 41.3932 11.8516 40.9922 11.9766C40.5964 12.0964 40.151 12.1562 39.6562 12.1562C38.9115 12.1562 38.2812 12.0234 37.7656 11.7578C37.25 11.4922 36.8594 11.1484 36.5938 10.7266C36.3281 10.3047 36.1953 9.85938 36.1953 9.39062H37.6484C37.6693 9.78646 37.7839 10.1016 37.9922 10.3359C38.2005 10.5651 38.4557 10.7292 38.7578 10.8281C39.0599 10.9219 39.3594 10.9688 39.6562 10.9688C40.0521 10.9688 40.3828 10.9167 40.6484 10.8125C40.9193 10.7083 41.125 10.5651 41.2656 10.3828C41.4062 10.2005 41.4766 9.99219 41.4766 9.75781Z" fill="#333333"/>
</svg>
